<svg xmlns="http://www.w3.org/2000/svg" id="Layer_1" viewBox="0 0 36 36"><style>.st0{fill:#fff}</style>

<g transform="translate(14, -7) rotate(45)">
    <rect class="st0" x="12.8" y="17.1" width="6" height="1"/>
    </g>

<g transform="translate(-9, 20) rotate(-45)">
    <rect class="st0" x="19.6" y="17.5" width="6" height="1"/>
    </g>

<g transform="translate(-10, 16) rotate(-45)">
    <rect class="st0" x="12.8" y="16" width="6" height="1"/>
    </g>

<g transform="translate(17, -9.8) rotate(45)">
    <rect class="st0" x="17.5" y="16.3" width="6" height="1"/>
    </g>

<path class="st0" d="M28.5 0H3.8C1.7 0 0 1.7 0 3.7V28c0 2.1 1.7 3.7 3.8 3.7h21l-1-3.3 2.4 2.1 2.2 2 4 3.4V3.7c-.1-2-1.8-3.7-3.9-3.7zm-7.1 23.5s-.7-.8-1.2-1.5c2.4-.7 3.3-2.1 3.3-2.1-.8.5-1.5.8-2.1 1.1-.9.4-1.8.6-2.7.8-1.8.3-3.4.2-4.8 0-1.1-.2-2-.5-2.7-.8-.4-.2-.9-.4-1.4-.6-.1 0-.1-.1-.2-.1h-.1c-.3-.2-.5-.3-.5-.3s.9 1.4 3.2 2.1c-.6.7-1.2 1.5-1.2 1.5-4.1-.1-5.6-2.7-5.6-2.7 0-5.8 2.7-10.5 2.7-10.5 2.7-2 5.2-1.9 5.2-1.9l.2.2c-3.3.8-4.8 2.3-4.8 2.3s.4-.2 1.1-.5c2-.8 3.5-1.1 4.2-1.1h.3c1.1-.1 2.4-.2 3.7 0 1.8.2 3.6.7 5.6 1.7 0 0-1.5-1.4-4.6-2.3l.3-.3s2.5-.1 5.2 1.9c0 0 2.7 4.7 2.7 10.5-.1-.1-1.7 2.5-5.8 2.6z"/></svg>