<?xml version="1.0" standalone="no"?>
<!DOCTYPE svg PUBLIC "-//W3C//DTD SVG 20010904//EN"
 "http://www.w3.org/TR/2001/REC-SVG-20010904/DTD/svg10.dtd">
<svg version="1.0" xmlns="http://www.w3.org/2000/svg"
 width="556.000000pt" height="701.000000pt" viewBox="0 0 556.000000 701.000000"
 preserveAspectRatio="xMidYMid meet">
<metadata>
Created by potrace 1.15, written by Peter Selinger 2001-2017
</metadata>
<g transform="translate(0.000000,701.000000) scale(0.100000,-0.100000)"
fill="#000000" stroke="none">
<path d="M586 6698 c-8 -35 -31 -126 -51 -203 -21 -77 -46 -183 -57 -235 -10
-52 -26 -126 -34 -165 -33 -153 -79 -432 -100 -605 -8 -69 -19 -156 -24 -195
-5 -38 -12 -248 -16 -465 -11 -652 19 -989 130 -1435 8 -33 20 -80 26 -105 6
-25 34 -117 62 -204 45 -141 65 -196 98 -271 5 -11 21 -49 35 -85 43 -106 153
-326 228 -455 71 -123 232 -366 271 -408 11 -13 48 -59 81 -102 81 -106 356
-382 485 -487 164 -132 383 -284 535 -370 69 -39 280 -144 340 -169 11 -4 54
-22 95 -39 122 -52 316 -118 440 -151 41 -12 100 -27 130 -35 122 -34 295 -69
417 -87 45 -7 85 -15 89 -19 4 -5 30 -8 58 -8 29 0 105 -7 171 -15 223 -27
515 -38 709 -26 98 6 182 8 187 5 4 -2 47 1 96 7 81 11 128 15 208 18 l30 1 0
533 c0 750 -20 1157 -75 1557 -79 567 -137 821 -263 1160 -166 445 -296 677
-562 1010 -87 108 -291 305 -432 417 -54 42 -99 81 -101 85 -2 4 -10 8 -18 8
-8 0 -14 3 -14 8 0 4 -12 13 -27 19 -16 7 -41 25 -58 39 -42 36 -374 244 -391
244 -2 0 -21 11 -42 24 -48 30 -637 328 -762 385 -52 24 -144 67 -205 96 -157
75 -227 107 -339 155 -54 23 -106 46 -115 50 -9 5 -52 26 -96 46 -219 100
-681 328 -850 419 -182 97 -220 115 -246 115 -25 0 -29 -5 -43 -62z"/>
</g>
</svg>
