<svg xmlns="http://www.w3.org/2000/svg" width="508" height="132" xmlns:xlink="http://www.w3.org/1999/xlink">
  <defs>
    <path id="a" d="M31.4286 0H0v20.9998h31.4286V0z"/>
    <path id="c" d="M9.912 11.3141V.7321H.5782v10.582H9.912z"/>
    <path id="e" d="M0 .0232v9.333h9.3337V.0232H0z"/>
  </defs>
  <g fill="none" fill-rule="evenodd">
    <path fill="#1B2138" d="M486.1704 1.647v39.004c0 13.676-11.087 24.763-24.763 24.763h-.008c-13.676 0-24.762-11.087-24.762-24.763v-3.466c0-6.055-4.908-10.963-10.962-10.963-6.055 0-10.963 4.908-10.963 10.963v79.386c0 8.521-6.907 15.429-15.428 15.429-8.527 0-15.438-6.913-15.435-15.439.004-9.611.006-12.844.006-29.181.001-10.539-8.543-19.082-19.082-19.082-10.539 0-19.082 8.543-19.082 19.082v5.643c0 5.83-4.727 10.556-10.557 10.556s-10.556-4.726-10.556-10.556V1.647h161.592z"/>
    <path fill="#66739D" d="M435.7035.9998c-.553 0-1 .448-1 1v6.771c0 .552.447 1 1 1 .553 0 1-.448 1-1v-6.771c0-.552-.447-1-1-1m-13 0c-.553 0-1 .448-1 1v6.771c0 .552.447 1 1 1 .553 0 1-.448 1-1v-6.771c0-.552-.447-1-1-1m-13 0c-.553 0-1 .448-1 1v6.771c0 .552.447 1 1 1 .553 0 1-.448 1-1v-6.771c0-.552-.447-1-1-1"/>
    <path fill="#313E60" d="M443.2703 5h-26.112c-.65 0-1.177.527-1.177 1.176v1.336c0 7.147 5.794 12.94 12.94 12.94h3.921c7.147 0 12.94-5.793 12.94-12.94 0-1.387-1.125-2.512-2.512-2.512"/>
    <g transform="matrix(1 0 0 -1 405.374 26)">
      <mask id="b" fill="#fff">
        <use xlink:href="#a"/>
      </mask>
      <path fill="#3F4C76" d="M31.4286 20.9998h-28.88c-1.408 0-2.549-1.141-2.549-2.548v-2.452c0-8.837 7.164-16 16-16h2.688c7.037 0 12.741 5.704 12.741 12.741v8.259z" mask="url(#b)"/>
    </g>
    <path fill="#1B2138" d="M286.6473 37.9154h.007c8.466 0 15.33-6.863 15.33-15.33V1.6474h-30.667v20.938c0 8.467 6.863 15.33 15.33 15.33"/>
    <path fill="#313E60" d="M38.5651 1.647h-9.333v14.019c0 2.578 2.089 4.667 4.666 4.667 2.578 0 4.667-2.089 4.667-4.667V1.647zm51.6008 0h-9.333v6.019c0 2.578 2.089 4.667 4.666 4.667 2.578 0 4.667-2.089 4.667-4.667V1.647zm385.8181 0h-9.333v10.019c0 2.578 2.089 4.667 4.666 4.667 2.578 0 4.667-2.089 4.667-4.667V1.647zm31.9278 0h-9.333v6.019c0 2.578 2.089 4.667 4.666 4.667 2.578 0 4.667-2.089 4.667-4.667V1.647zm-498.5785 0H.0003v4.019c0 2.578 2.089 4.667 4.666 4.667 2.578 0 4.667-2.089 4.667-4.667V1.647zm24.5652 26.9772c-2.567 0-4.667 2.1-4.667 4.667v5.249c0 2.566 2.1 4.666 4.667 4.666 2.567 0 4.667-2.1 4.667-4.666v-5.249c0-2.567-2.1-4.667-4.667-4.667"/>
    <g transform="matrix(1 0 0 -1 498 27.647)">
      <mask id="d" fill="#fff">
        <use xlink:href="#c"/>
      </mask>
      <path fill="#313E60" d="M5.2452 11.3141c-2.567 0-4.667-2.1-4.667-4.667v-1.249c0-2.566 2.1-4.666 4.667-4.666 2.567 0 4.667 2.1 4.667 4.666v1.249c0 2.567-2.1 4.667-4.667 4.667" mask="url(#d)"/>
    </g>
    <g transform="matrix(1 0 0 -1 0 30.647)">
      <mask id="f" fill="#fff">
        <use xlink:href="#e"/>
      </mask>
      <path fill="#313E60" d="M4.6667 9.3562c-2.567 0-4.667-2.1-4.667-4.667 0-2.566 2.1-4.666 4.667-4.666 2.567 0 4.667 2.1 4.667 4.666 0 2.567-2.1 4.667-4.667 4.667" mask="url(#f)"/>
    </g>
  </g>
</svg>