<svg xmlns="http://www.w3.org/2000/svg" width="418" height="108" xmlns:xlink="http://www.w3.org/1999/xlink">
  <defs>
    <path id="a" d="M31.4286 0H0v20.9998h31.4286V0z"/>
    <path id="c" d="M89.437 70.9997V.6137H.5904v70.386z"/>
    <path id="e" d="M57.3336 43H0V.6344h57.3336V43z"/>
  </defs>
  <g fill="none" fill-rule="evenodd">
    <path fill="#1B2138" d="M298.0605 67.333V2.647h-130.386v46.364c0 8.941 7.248 16.19 16.19 16.19h.006c8.941 0 16.19-7.249 16.19-16.19v-3.348c0-4.601 3.729-8.33 8.33-8.33h.007c4.6 0 8.33 3.729 8.33 8.33v21.67c0 22.46 18.207 40.667 40.666 40.667 22.46 0 40.667-18.207 40.667-40.667"/>
    <path fill="#66739D" d="M177.3291.9998c-.553 0-1 .448-1 1v6.771c0 .552.447 1 1 1 .553 0 1-.448 1-1v-6.771c0-.552-.447-1-1-1m-13 0c-.553 0-1 .448-1 1v6.771c0 .552.447 1 1 1 .553 0 1-.448 1-1v-6.771c0-.552-.447-1-1-1m-13 0c-.553 0-1 .448-1 1v6.771c0 .552.447 1 1 1 .553 0 1-.448 1-1v-6.771c0-.552-.447-1-1-1"/>
    <path fill="#313E60" d="M184.8959 5h-26.112c-.65 0-1.177.527-1.177 1.176v1.336c0 7.147 5.794 12.94 12.94 12.94h3.921c7.147 0 12.94-5.793 12.94-12.94 0-1.387-1.125-2.512-2.512-2.512"/>
    <g transform="matrix(1 0 0 -1 147 26)">
      <mask id="b" fill="#fff">
        <use xlink:href="#a"/>
      </mask>
      <path fill="#3F4C76" d="M31.4286 20.9998h-28.88c-1.408 0-2.549-1.141-2.549-2.548v-2.452c0-8.837 7.164-16 16-16h2.688c7.037 0 12.741 5.704 12.741 12.741v8.259z" mask="url(#b)"/>
    </g>
    <g transform="matrix(1 0 0 -1 328 73.647)">
      <mask id="d" fill="#fff">
        <use xlink:href="#c"/>
      </mask>
      <path fill="#1B2138" d="M45.0104.6137h.007c24.533 0 44.42 19.888 44.42 44.42v25.966H.5904v-25.966c0-24.532 19.888-44.42 44.42-44.42" mask="url(#d)"/>
    </g>
    <g transform="matrix(1 0 0 -1 0 45.647)">
      <mask id="f" fill="#fff">
        <use xlink:href="#e"/>
      </mask>
      <path fill="#1B2138" d="M28.6666.6344c15.832 0 28.667 12.835 28.667 28.667v13.699H-.0004v-13.699c0-15.832 12.835-28.667 28.667-28.667" mask="url(#f)"/>
    </g>
    <path fill="#313E60" d="M285.7272 2.647h-9.333v27.019c0 2.578 2.089 4.667 4.666 4.667 2.578 0 4.667-2.089 4.667-4.667V2.647zm18 0h-9.333v17.019c0 2.578 2.089 4.667 4.666 4.667 2.578 0 4.667-2.089 4.667-4.667V2.647zm-206.3333 0h-9.333v14.019c0 2.578 2.089 4.667 4.666 4.667 2.578 0 4.667-2.089 4.667-4.667V2.647zm23 0h-9.333v6.019c0 2.578 2.089 4.667 4.666 4.667 2.578 0 4.667-2.089 4.667-4.667V2.647zM82 2.647h-9.333v6.019c0 2.578 2.089 4.667 4.666 4.667 2.578 0 4.667-2.089 4.667-4.667V2.647zm33.7272 14.8916c-2.567 0-4.667 2.1-4.667 4.667v3.249c0 2.566 2.1 4.666 4.667 4.666 2.567 0 4.667-2.1 4.667-4.666v-3.249c0-2.567-2.1-4.667-4.667-4.667"/>
  </g>
</svg>